<svg xmlns="http://www.w3.org/2000/svg" xmlns:xlink="http://www.w3.org/1999/xlink" width="650" zoomAndPan="magnify" viewBox="0 0 487.5 60" height="80" preserveAspectRatio="xMidYMid meet" version="1.2"><g id="f467526fcb"><path style=" stroke:none;fill-rule:nonzero;fill:#000000;fill-opacity:1;" d="M 148.46875 15.679688 L 151.726562 46.046875 L 140.898438 46.046875 L 140.222656 24.382812 L 136.042969 46.046875 L 125.089844 46.046875 L 120.824219 24.546875 L 120.191406 46.046875 L 109.363281 46.046875 L 112.621094 15.679688 L 126.847656 15.679688 L 130.484375 35.464844 L 133.660156 15.679688 Z M 148.46875 15.679688 "/><path style=" stroke:none;fill-rule:nonzero;fill:#000000;fill-opacity:1;" d="M 158.023438 43.175781 C 155.777344 40.988281 154.65625 38.109375 154.65625 34.539062 C 154.65625 30.96875 155.777344 28.222656 158.023438 26.046875 C 160.265625 23.871094 163.773438 22.789062 168.542969 22.789062 C 171.75 22.789062 174.429688 23.308594 176.59375 24.351562 C 178.753906 25.398438 180.351562 26.804688 181.378906 28.578125 C 182.410156 30.347656 182.925781 32.332031 182.925781 34.539062 C 182.925781 38.136719 181.734375 41.019531 179.351562 43.195312 C 176.96875 45.371094 173.363281 46.457031 168.542969 46.457031 C 163.722656 46.457031 160.265625 45.363281 158.023438 43.171875 M 172.761719 38.054688 C 173.652344 37.191406 174.097656 36.035156 174.097656 34.585938 C 174.097656 33.222656 173.652344 32.097656 172.761719 31.222656 C 171.867188 30.34375 170.519531 29.902344 168.703125 29.902344 C 166.890625 29.902344 165.566406 30.339844 164.734375 31.203125 C 163.898438 32.066406 163.476562 33.195312 163.476562 34.589844 C 163.476562 35.984375 163.898438 37.195312 164.734375 38.0625 C 165.566406 38.925781 166.894531 39.359375 168.703125 39.359375 C 170.511719 39.359375 171.867188 38.929688 172.761719 38.0625 "/><path style=" stroke:none;fill-rule:nonzero;fill:#000000;fill-opacity:1;" d="M 212.953125 29.773438 C 212.953125 35.378906 213.039062 40.800781 213.207031 46.046875 L 203.757812 46.046875 L 203.878906 41.023438 C 203.074219 42.894531 201.898438 44.265625 200.367188 45.144531 C 198.835938 46.023438 197.023438 46.460938 194.929688 46.460938 C 193.117188 46.460938 191.488281 45.945312 190.039062 44.914062 C 188.585938 43.882812 187.460938 42.480469 186.648438 40.710938 C 185.839844 38.9375 185.4375 36.996094 185.4375 34.878906 C 185.4375 32.757812 185.839844 30.816406 186.648438 28.957031 C 187.457031 27.105469 188.59375 25.613281 190.058594 24.488281 C 191.523438 23.355469 193.1875 22.792969 195.054688 22.792969 C 197.230469 22.792969 199.089844 23.246094 200.640625 24.152344 C 202.1875 25.058594 203.335938 26.457031 204.089844 28.351562 C 204.089844 26.761719 204.03125 24.214844 203.921875 20.703125 C 203.8125 17.296875 203.757812 14.902344 203.757812 13.507812 L 213.207031 13.507812 C 213.039062 18.691406 212.953125 24.117188 212.953125 29.773438 M 202.664062 38.285156 C 203.527344 37.515625 203.960938 36.300781 203.960938 34.625 C 203.960938 33.144531 203.527344 32.0625 202.664062 31.363281 C 201.800781 30.667969 200.710938 30.320312 199.398438 30.320312 C 198.085938 30.320312 197.09375 30.714844 196.242188 31.511719 C 195.394531 32.308594 194.96875 33.34375 194.96875 34.628906 C 194.96875 36.050781 195.359375 37.207031 196.136719 38.097656 C 196.917969 38.992188 197.976562 39.433594 199.316406 39.433594 C 200.660156 39.433594 201.800781 39.054688 202.664062 38.285156 "/><path style=" stroke:none;fill-rule:nonzero;fill:#000000;fill-opacity:1;" d="M 238.667969 35.589844 L 225.039062 35.589844 C 225.261719 36.816406 225.8125 37.8125 226.691406 38.574219 C 227.566406 39.34375 228.8125 39.726562 230.433594 39.726562 C 231.605469 39.726562 232.703125 39.496094 233.734375 39.035156 C 234.765625 38.574219 235.585938 37.925781 236.203125 37.089844 C 238.066406 38.011719 240.550781 39 243.648438 40.058594 C 242.785156 42.011719 241.214844 43.570312 238.941406 44.722656 C 236.667969 45.878906 233.707031 46.457031 230.054688 46.457031 C 225.316406 46.457031 221.808594 45.363281 219.535156 43.171875 C 217.261719 40.980469 216.128906 38.105469 216.128906 34.539062 C 216.128906 30.972656 217.257812 28.222656 219.515625 26.046875 C 221.773438 23.871094 225.285156 22.789062 230.054688 22.789062 C 232.898438 22.789062 235.367188 23.261719 237.457031 24.210938 C 239.546875 25.160156 241.152344 26.476562 242.269531 28.160156 C 243.386719 29.851562 243.9375 31.78125 243.9375 33.957031 C 243.9375 34.679688 243.910156 35.226562 243.859375 35.589844 Z M 227.210938 29.898438 C 226.316406 30.429688 225.691406 31.152344 225.328125 32.074219 L 235.199219 32.074219 C 234.867188 31.183594 234.320312 30.46875 233.566406 29.921875 C 232.8125 29.378906 231.839844 29.105469 230.640625 29.105469 C 229.246094 29.105469 228.101562 29.375 227.210938 29.902344 "/><path style=" stroke:none;fill-rule:nonzero;fill:#000000;fill-opacity:1;" d="M 256.652344 37.011719 C 256.652344 41.164062 256.683594 44.175781 256.738281 46.046875 L 246.871094 46.046875 L 246.914062 41.320312 C 246.96875 36.136719 247 32.132812 247 29.316406 C 247 26.5 246.96875 22.847656 246.914062 17.941406 L 246.871094 13.425781 L 256.738281 13.425781 C 256.683594 17.390625 256.652344 20.621094 256.652344 23.132812 C 256.652344 25.917969 256.667969 27.980469 256.695312 29.320312 C 256.667969 30.992188 256.652344 33.558594 256.652344 37.015625 "/><path style=" stroke:none;fill-rule:nonzero;fill:#000000;fill-opacity:1;" d="M 307.546875 15.679688 L 310.8125 46.046875 L 299.976562 46.046875 L 299.308594 24.382812 L 295.128906 46.046875 L 284.167969 46.046875 L 279.90625 24.546875 L 279.277344 46.046875 L 268.449219 46.046875 L 271.707031 15.679688 L 285.925781 15.679688 L 289.566406 35.464844 L 292.746094 15.679688 Z M 307.546875 15.679688 "/><path style=" stroke:none;fill-rule:nonzero;fill:#000000;fill-opacity:1;" d="M 317.101562 43.175781 C 314.859375 40.988281 313.738281 38.109375 313.738281 34.539062 C 313.738281 30.96875 314.859375 28.222656 317.101562 26.046875 C 319.34375 23.871094 322.855469 22.789062 327.621094 22.789062 C 330.828125 22.789062 333.511719 23.308594 335.671875 24.351562 C 337.835938 25.398438 339.429688 26.804688 340.460938 28.578125 C 341.492188 30.347656 342.007812 32.332031 342.007812 34.539062 C 342.007812 38.136719 340.8125 41.019531 338.433594 43.195312 C 336.050781 45.371094 332.441406 46.457031 327.621094 46.457031 C 322.800781 46.457031 319.34375 45.363281 317.101562 43.171875 M 331.847656 38.054688 C 332.738281 37.191406 333.183594 36.035156 333.183594 34.585938 C 333.183594 33.222656 332.738281 32.097656 331.847656 31.222656 C 330.953125 30.34375 329.601562 29.902344 327.789062 29.902344 C 325.976562 29.902344 324.652344 30.339844 323.8125 31.203125 C 322.976562 32.066406 322.558594 33.195312 322.558594 34.589844 C 322.558594 35.984375 322.976562 37.195312 323.8125 38.0625 C 324.648438 38.925781 325.976562 39.359375 327.789062 39.359375 C 329.601562 39.359375 330.953125 38.929688 331.847656 38.0625 "/><path style=" stroke:none;fill-rule:nonzero;fill:#000000;fill-opacity:1;" d="M 361.246094 46.039062 C 361.414062 41.941406 361.5 38.164062 361.5 34.707031 C 361.5 33.480469 361.199219 32.503906 360.597656 31.78125 C 360 31.054688 359.238281 30.691406 358.320312 30.691406 C 357.40625 30.691406 356.621094 31.101562 355.976562 31.925781 C 355.339844 32.75 354.960938 33.871094 354.847656 35.292969 C 354.789062 37.410156 354.765625 38.914062 354.765625 39.808594 C 354.765625 41.703125 354.824219 43.777344 354.933594 46.039062 L 344.9375 46.039062 C 345.164062 42.027344 345.273438 38.238281 345.273438 34.667969 C 345.273438 31.097656 345.15625 27.277344 344.9375 23.207031 C 346.777344 23.289062 348.183594 23.332031 349.160156 23.332031 C 350.191406 23.332031 351.601562 23.289062 353.386719 23.207031 L 354.597656 29.355469 C 355.238281 27.125 356.246094 25.472656 357.609375 24.402344 C 358.976562 23.328125 360.5625 22.792969 362.378906 22.792969 C 364.054688 22.792969 365.5 23.160156 366.726562 23.898438 C 367.953125 24.640625 368.878906 25.636719 369.507812 26.890625 C 370.132812 28.148438 370.449219 29.554688 370.449219 31.117188 L 370.449219 37.140625 C 370.449219 40.847656 370.515625 43.816406 370.660156 46.046875 L 361.25 46.046875 Z M 361.246094 46.039062 "/><path style=" stroke:none;fill-rule:nonzero;fill:#000000;fill-opacity:1;" d="M 380.375 45.476562 C 377.964844 44.824219 375.699219 43.828125 373.578125 42.484375 L 377.972656 36.503906 C 379.253906 37.425781 380.800781 38.140625 382.609375 38.65625 C 384.425781 39.171875 385.984375 39.429688 387.292969 39.429688 C 388.601562 39.429688 389.515625 39.257812 390.199219 38.910156 C 390.882812 38.5625 391.226562 38.109375 391.226562 37.550781 C 391.226562 37.105469 391.058594 36.753906 390.722656 36.503906 C 390.390625 36.257812 389.925781 36.128906 389.34375 36.128906 C 388.980469 36.128906 388.570312 36.140625 388.109375 36.171875 C 387.648438 36.199219 387.277344 36.226562 387 36.257812 C 385.550781 36.421875 384.0625 36.503906 382.523438 36.503906 C 380.042969 36.503906 378.027344 36.035156 376.480469 35.101562 C 374.933594 34.164062 374.164062 32.644531 374.164062 30.523438 C 374.164062 28.070312 375.316406 26.167969 377.632812 24.816406 C 379.945312 23.464844 383.34375 22.789062 387.835938 22.789062 C 390.035156 22.789062 392.261719 23.101562 394.503906 23.726562 C 396.746094 24.359375 398.734375 25.296875 400.464844 26.546875 L 395.65625 31.402344 C 394.066406 30.566406 392.582031 29.976562 391.203125 29.625 C 389.820312 29.277344 388.433594 29.101562 387.039062 29.101562 C 386.066406 29.101562 385.226562 29.296875 384.527344 29.6875 C 383.832031 30.082031 383.484375 30.523438 383.484375 31.023438 C 383.484375 31.417969 383.632812 31.722656 383.921875 31.945312 C 384.214844 32.171875 384.601562 32.28125 385.074219 32.28125 C 385.546875 32.28125 386.203125 32.238281 387.039062 32.15625 C 389.074219 32.019531 390.59375 31.945312 391.597656 31.945312 C 394.5 31.945312 396.742188 32.433594 398.332031 33.410156 C 399.921875 34.390625 400.714844 35.878906 400.714844 37.890625 C 400.714844 40.902344 399.542969 43.082031 397.199219 44.433594 C 394.855469 45.78125 391.625 46.460938 387.496094 46.460938 C 385.152344 46.460938 382.777344 46.132812 380.367188 45.476562 "/><path style=" stroke:none;fill-rule:nonzero;fill:#000000;fill-opacity:1;" d="M 422.582031 30.695312 C 420.015625 30.527344 417.675781 30.40625 415.558594 30.320312 L 415.515625 34.753906 C 415.515625 36.257812 415.84375 37.433594 416.496094 38.285156 C 417.152344 39.132812 418.316406 39.558594 419.992188 39.558594 C 420.632812 39.558594 421.246094 39.503906 421.828125 39.390625 C 421.71875 40.421875 421.660156 41.46875 421.660156 42.527344 C 421.660156 43.027344 421.691406 44.175781 421.746094 45.960938 C 420.519531 46.183594 419.492188 46.324219 418.648438 46.378906 C 417.816406 46.4375 416.726562 46.464844 415.390625 46.464844 C 412.125 46.464844 409.820312 45.679688 408.46875 44.101562 C 407.117188 42.527344 406.441406 40.332031 406.441406 37.515625 L 406.484375 30.449219 C 405.171875 30.503906 403.804688 30.585938 402.382812 30.699219 L 402.382812 23.296875 C 403.835938 23.296875 405.0625 22.839844 406.0625 21.917969 C 407.066406 20.996094 407.667969 19.894531 407.863281 18.617188 L 419.238281 18.617188 C 417.816406 20.566406 416.238281 22.128906 414.511719 23.296875 L 422.582031 23.296875 L 422.582031 30.699219 Z M 422.582031 30.695312 "/><path style=" stroke:none;fill-rule:nonzero;fill:#000000;fill-opacity:1;" d="M 446.390625 35.589844 L 432.757812 35.589844 C 432.984375 36.816406 433.53125 37.8125 434.410156 38.574219 C 435.289062 39.34375 436.535156 39.726562 438.152344 39.726562 C 439.328125 39.726562 440.425781 39.496094 441.453125 39.035156 C 442.484375 38.574219 443.308594 37.925781 443.921875 37.089844 C 445.789062 38.011719 448.269531 39 451.367188 40.058594 C 450.503906 42.011719 448.933594 43.570312 446.664062 44.722656 C 444.390625 45.878906 441.425781 46.457031 437.773438 46.457031 C 433.035156 46.457031 429.527344 45.363281 427.253906 43.171875 C 424.984375 40.980469 423.847656 38.105469 423.847656 34.539062 C 423.847656 30.972656 424.980469 28.222656 427.238281 26.046875 C 429.496094 23.871094 433.007812 22.789062 437.773438 22.789062 C 440.621094 22.789062 443.085938 23.261719 445.179688 24.210938 C 447.269531 25.160156 448.871094 26.476562 449.988281 28.160156 C 451.105469 29.851562 451.660156 31.78125 451.660156 33.957031 C 451.660156 34.679688 451.628906 35.226562 451.578125 35.589844 Z M 434.929688 29.898438 C 434.039062 30.429688 433.414062 31.152344 433.050781 32.074219 L 442.921875 32.074219 C 442.585938 31.183594 442.042969 30.46875 441.289062 29.921875 C 440.535156 29.378906 439.558594 29.105469 438.363281 29.105469 C 436.96875 29.105469 435.824219 29.375 434.929688 29.902344 "/><path style=" stroke:none;fill-rule:nonzero;fill:#000000;fill-opacity:1;" d="M 464.289062 29.398438 C 465.457031 25.1875 468.375 23.082031 473.027344 23.082031 C 473.835938 23.082031 474.617188 23.140625 475.371094 23.25 L 474.035156 32.621094 C 472.03125 31.867188 470.382812 31.488281 469.097656 31.488281 C 467.511719 31.488281 466.339844 31.960938 465.585938 32.910156 C 464.832031 33.859375 464.457031 35.125 464.457031 36.714844 L 464.457031 36.671875 L 464.414062 39.429688 C 464.414062 41.410156 464.46875 43.613281 464.578125 46.035156 L 454.585938 46.035156 C 454.808594 42.023438 454.917969 38.234375 454.917969 34.664062 C 454.917969 31.09375 454.808594 27.273438 454.585938 23.203125 C 456.425781 23.289062 457.832031 23.328125 458.808594 23.328125 C 459.839844 23.328125 461.25 23.285156 463.035156 23.203125 L 464.289062 29.394531 Z M 464.289062 29.398438 "/><path style=" stroke:none;fill-rule:nonzero;fill:#643afe;fill-opacity:1;" d="M 49.53125 30.644531 C 49.792969 32.003906 51.75 31.976562 51.972656 30.605469 L 56.09375 5.289062 C 56.460938 3.007812 58.425781 1.332031 60.738281 1.332031 L 80.402344 1.332031 C 82.800781 1.332031 84.820312 3.140625 85.078125 5.535156 C 85.078125 5.535156 88.859375 40.753906 90.125 52.488281 C 90.472656 55.71875 87.9375 58.535156 84.691406 58.535156 L 17.027344 58.535156 C 13.78125 58.535156 11.246094 55.71875 11.59375 52.488281 C 12.855469 40.746094 16.640625 5.535156 16.640625 5.535156 C 16.898438 3.140625 18.917969 1.332031 21.316406 1.332031 L 39.964844 1.332031 C 42.238281 1.332031 44.179688 2.953125 44.589844 5.183594 L 49.53125 30.640625 Z M 49.53125 30.644531 "/><path style=" stroke:none;fill-rule:nonzero;fill:#f5f5f5;fill-opacity:1;" d="M 41.105469 43.441406 C 41.105469 48.722656 36.824219 52.597656 31.539062 52.597656 C 26.257812 52.597656 21.976562 48.726562 21.976562 43.441406 C 21.976562 38.152344 26.257812 33.875 31.539062 33.875 C 36.824219 33.875 41.105469 38.15625 41.105469 43.441406 "/><path style=" stroke:none;fill-rule:nonzero;fill:#000000;fill-opacity:1;" d="M 39.878906 43.234375 C 39.878906 46.875 36.929688 49.824219 33.289062 49.824219 C 29.644531 49.824219 26.695312 46.875 26.695312 43.234375 C 26.695312 39.59375 29.644531 36.644531 33.289062 36.644531 C 36.929688 36.644531 39.878906 39.59375 39.878906 43.234375 "/><path style=" stroke:none;fill-rule:nonzero;fill:#f5f5f5;fill-opacity:1;" d="M 80.300781 43.441406 C 80.300781 48.722656 76.019531 52.597656 70.734375 52.597656 C 65.453125 52.597656 61.171875 48.726562 61.171875 43.441406 C 61.171875 38.152344 65.453125 33.875 70.734375 33.875 C 76.019531 33.875 80.300781 38.15625 80.300781 43.441406 "/><path style=" stroke:none;fill-rule:nonzero;fill:#000000;fill-opacity:1;" d="M 79.074219 43.234375 C 79.074219 46.875 76.125 49.824219 72.484375 49.824219 C 68.839844 49.824219 65.890625 46.875 65.890625 43.234375 C 65.890625 39.59375 68.839844 36.644531 72.484375 36.644531 C 76.125 36.644531 79.074219 39.59375 79.074219 43.234375 "/></g></svg>