<?xml version="1.0" encoding="UTF-8"?>
<svg id="Capa_1" data-name="Capa 1" xmlns="http://www.w3.org/2000/svg" viewBox="0 0 1080 1080">
  <defs>
    <style>
      .cls-1 {
        fill: #f5f5f5;
      }

      .cls-2 {
        fill: #643afe;
      }
    </style>
  </defs>
  <polygon points="340.96 510.12 347.79 573.74 325.1 573.74 323.69 528.35 314.93 573.74 291.98 573.74 283.04 528.7 281.72 573.74 259.03 573.74 265.86 510.12 295.66 510.12 303.28 551.57 309.94 510.12 340.96 510.12"/>
  <path d="M360.98,567.73c-4.7-4.59-7.05-10.62-7.05-18.1s2.35-13.23,7.05-17.79c4.7-4.56,12.05-6.83,22.04-6.83,6.72,0,12.34,1.09,16.87,3.28,4.53,2.19,7.87,5.14,10.03,8.85,2.16,3.71,3.24,7.87,3.24,12.49,0,7.54-2.5,13.58-7.49,18.14-4.99,4.56-12.55,6.83-22.65,6.83s-17.34-2.29-22.04-6.88M391.86,557c1.87-1.81,2.8-4.23,2.8-7.27,0-2.86-.93-5.21-2.8-7.05-1.87-1.84-4.7-2.76-8.5-2.76s-6.57.91-8.32,2.72c-1.75,1.81-2.63,4.18-2.63,7.1s.88,5.46,2.63,7.27c1.75,1.81,4.53,2.72,8.32,2.72s6.63-.9,8.5-2.72"/>
  <path d="M476.07,539.65c0,11.74.18,23.1.53,34.09h-19.8l.26-10.52c-1.69,3.92-4.15,6.79-7.36,8.63-3.21,1.84-7.01,2.76-11.39,2.76-3.8,0-7.21-1.08-10.25-3.24-3.04-2.16-5.4-5.1-7.1-8.81-1.7-3.71-2.54-7.78-2.54-12.22s.84-8.51,2.54-12.4c1.69-3.88,4.07-7.01,7.14-9.37,3.07-2.37,6.56-3.55,10.47-3.55,4.56,0,8.45.95,11.7,2.85,3.24,1.9,5.65,4.83,7.23,8.8,0-3.33-.12-8.67-.35-16.03-.23-7.13-.35-12.15-.35-15.07h19.8c-.35,10.86-.53,22.23-.53,34.08M454.51,557.48c1.81-1.61,2.72-4.16,2.72-7.67,0-3.1-.91-5.37-2.72-6.83-1.81-1.46-4.09-2.19-6.84-2.19s-4.83.83-6.61,2.5c-1.78,1.67-2.67,3.84-2.67,6.53,0,2.98.82,5.4,2.45,7.27,1.63,1.87,3.85,2.8,6.66,2.8s5.2-.8,7.01-2.41"/>
  <path d="M529.95,551.83h-28.56c.47,2.57,1.62,4.66,3.46,6.26,1.84,1.61,4.45,2.41,7.84,2.41,2.46,0,4.76-.48,6.92-1.45,2.16-.96,3.88-2.32,5.17-4.07,3.91,1.93,9.11,4,15.6,6.22-1.81,4.09-5.1,7.35-9.86,9.77s-10.97,3.63-18.62,3.63c-9.93,0-17.28-2.29-22.04-6.88-4.76-4.59-7.14-10.62-7.14-18.09s2.37-13.23,7.1-17.79,12.09-6.83,22.08-6.83c5.96,0,11.13.99,15.51,2.98,4.38,1.99,7.74,4.75,10.08,8.28,2.34,3.54,3.5,7.58,3.5,12.14,0,1.52-.06,2.66-.17,3.42h-10.87ZM505.94,539.91c-1.87,1.11-3.18,2.63-3.94,4.56h20.68c-.7-1.87-1.84-3.37-3.42-4.51-1.58-1.14-3.62-1.71-6.13-1.71-2.92,0-5.32.56-7.19,1.67"/>
  <path d="M567.63,554.81c0,8.7.06,15.01.18,18.93h-20.68l.09-9.9c.12-10.86.18-19.25.18-25.15s-.06-13.55-.18-23.83l-.09-9.46h20.68c-.12,8.3-.18,15.07-.18,20.33,0,5.84.03,10.16.09,12.97-.06,3.5-.09,8.88-.09,16.12"/>
  <polygon points="674.26 510.12 681.1 573.74 658.4 573.74 657 528.35 648.24 573.74 625.28 573.74 616.35 528.7 615.03 573.74 592.34 573.74 599.17 510.12 628.96 510.12 636.59 551.57 643.25 510.12 674.26 510.12"/>
  <path d="M694.28,567.73c-4.7-4.59-7.05-10.62-7.05-18.1s2.35-13.23,7.05-17.79c4.7-4.56,12.05-6.83,22.04-6.83,6.72,0,12.34,1.09,16.87,3.28,4.53,2.19,7.87,5.14,10.03,8.85,2.16,3.71,3.24,7.87,3.24,12.49,0,7.54-2.5,13.58-7.49,18.14-4.99,4.56-12.55,6.83-22.65,6.83s-17.34-2.29-22.04-6.88M725.17,557c1.87-1.81,2.8-4.23,2.8-7.27,0-2.86-.93-5.21-2.8-7.05-1.87-1.84-4.7-2.76-8.5-2.76s-6.57.91-8.33,2.72c-1.75,1.81-2.63,4.18-2.63,7.1s.88,5.46,2.63,7.27c1.75,1.81,4.53,2.72,8.33,2.72s6.63-.9,8.5-2.72"/>
  <path d="M786.77,573.73c.35-8.59.53-16.5.53-23.75,0-2.57-.63-4.61-1.89-6.13-1.25-1.52-2.85-2.28-4.77-2.28s-3.56.86-4.91,2.59c-1.34,1.72-2.13,4.07-2.37,7.05-.12,4.44-.17,7.59-.17,9.46,0,3.97.12,8.32.35,13.06h-20.94c.47-8.41.7-16.35.7-23.83s-.24-15.48-.7-24.01c3.85.17,6.8.26,8.85.26,2.16,0,5.11-.09,8.85-.26l2.54,12.88c1.34-4.67,3.45-8.13,6.31-10.38,2.86-2.25,6.19-3.37,9.99-3.37,3.51,0,6.54.77,9.11,2.32,2.57,1.55,4.51,3.64,5.83,6.27,1.31,2.63,1.97,5.58,1.97,8.85v12.62c0,7.77.14,13.99.44,18.66h-19.71Z"/>
  <path d="M826.85,572.55c-5.05-1.37-9.8-3.46-14.24-6.27l9.2-12.53c2.69,1.93,5.93,3.43,9.72,4.51,3.8,1.08,7.07,1.62,9.81,1.62s4.66-.36,6.09-1.09c1.43-.73,2.15-1.68,2.15-2.85,0-.93-.35-1.67-1.05-2.19-.7-.52-1.67-.79-2.89-.79-.76,0-1.62.03-2.59.09-.96.06-1.74.12-2.32.18-3.04.35-6.16.52-9.38.52-5.2,0-9.42-.98-12.66-2.94-3.24-1.96-4.86-5.15-4.86-9.59,0-5.14,2.42-9.13,7.27-11.96,4.85-2.83,11.97-4.25,21.38-4.25,4.61,0,9.27.66,13.97,1.97,4.7,1.32,8.86,3.29,12.49,5.91l-10.08,10.17c-3.33-1.75-6.44-2.99-9.33-3.72-2.89-.73-5.8-1.1-8.72-1.1-2.04,0-3.8.41-5.26,1.23-1.46.82-2.19,1.75-2.19,2.8,0,.82.31,1.46.92,1.93.61.47,1.42.7,2.41.7s2.37-.09,4.12-.26c4.26-.29,7.45-.44,9.55-.44,6.08,0,10.78,1.02,14.11,3.07,3.33,2.05,4.99,5.17,4.99,9.38,0,6.31-2.45,10.88-7.36,13.71-4.91,2.83-11.68,4.25-20.33,4.25-4.91,0-9.89-.69-14.94-2.06"/>
  <path d="M915.28,541.58c-5.38-.35-10.28-.61-14.72-.79l-.09,9.29c0,3.15.69,5.62,2.06,7.4,1.37,1.78,3.81,2.67,7.32,2.67,1.34,0,2.63-.12,3.85-.35-.23,2.16-.35,4.35-.35,6.57,0,1.05.06,3.45.18,7.19-2.57.47-4.73.76-6.49.88-1.75.12-4.03.18-6.83.18-6.84,0-11.67-1.65-14.5-4.95-2.83-3.3-4.25-7.9-4.25-13.8l.09-14.81c-2.75.12-5.61.29-8.59.53v-15.51c3.04,0,5.61-.96,7.71-2.89,2.1-1.93,3.36-4.24,3.77-6.92h23.83c-2.98,4.09-6.28,7.36-9.9,9.81h16.91v15.51Z"/>
  <path d="M965.16,551.83h-28.56c.47,2.57,1.62,4.66,3.46,6.26,1.84,1.61,4.45,2.41,7.84,2.41,2.46,0,4.76-.48,6.92-1.45,2.16-.96,3.88-2.32,5.17-4.07,3.91,1.93,9.11,4,15.6,6.22-1.81,4.09-5.1,7.35-9.86,9.77-4.76,2.42-10.97,3.63-18.62,3.63-9.93,0-17.28-2.29-22.04-6.88-4.76-4.59-7.14-10.62-7.14-18.09s2.37-13.23,7.1-17.79,12.09-6.83,22.08-6.83c5.96,0,11.13.99,15.51,2.98,4.38,1.99,7.74,4.75,10.08,8.28,2.34,3.54,3.5,7.58,3.5,12.14,0,1.52-.06,2.66-.17,3.42h-10.87ZM941.15,539.91c-1.87,1.11-3.18,2.63-3.94,4.56h20.68c-.7-1.87-1.84-3.37-3.42-4.51-1.58-1.14-3.62-1.71-6.13-1.71-2.92,0-5.32.56-7.19,1.67"/>
  <path d="M1002.66,538.86c2.45-8.82,8.56-13.23,18.31-13.23,1.69,0,3.33.12,4.91.35l-2.8,19.63c-4.2-1.58-7.65-2.37-10.34-2.37-3.33,0-5.78.99-7.36,2.98-1.58,1.99-2.37,4.64-2.37,7.97v-.09l-.09,5.78c0,4.15.12,8.76.35,13.84h-20.94c.47-8.41.7-16.35.7-23.83s-.23-15.48-.7-24.01c3.86.18,6.8.26,8.85.26,2.16,0,5.11-.09,8.85-.26l2.63,12.97Z"/>
  <path class="cls-2" d="M133.67,541.47c.55,2.85,4.65,2.79,5.12-.08l8.63-53.04c.77-4.78,4.89-8.29,9.73-8.29h41.2c5.03,0,9.26,3.79,9.8,8.8,0,0,7.92,73.79,10.57,98.38.73,6.77-4.58,12.67-11.38,12.67H65.57c-6.8,0-12.11-5.9-11.38-12.67,2.64-24.6,10.57-98.38,10.57-98.38.54-5.01,4.77-8.8,9.8-8.8h39.07c4.76,0,8.83,3.39,9.69,8.07l10.35,53.33Z"/>
  <path class="cls-1" d="M116.02,568.28c0,11.07-8.97,19.19-20.04,19.19s-20.04-8.11-20.04-19.19,8.97-20.04,20.04-20.04,20.04,8.97,20.04,20.04"/>
  <path d="M113.45,567.85c0,7.63-6.18,13.81-13.81,13.81s-13.81-6.18-13.81-13.81,6.18-13.81,13.81-13.81,13.81,6.18,13.81,13.81"/>
  <path class="cls-1" d="M198.14,568.28c0,11.07-8.97,19.19-20.04,19.19s-20.04-8.11-20.04-19.19,8.97-20.04,20.04-20.04,20.04,8.97,20.04,20.04"/>
  <path d="M195.57,567.85c0,7.63-6.18,13.81-13.81,13.81s-13.81-6.18-13.81-13.81,6.18-13.81,13.81-13.81,13.81,6.18,13.81,13.81"/>
</svg>